Movie Name   : The.Impossible.2012.PROPER.BDRip.XviD-ALLiANCE
Release Date : 10 April 2013
Theatre Date : 14 October 2012 (ES)
Retail Date  : 23 April 2013
Runtime      : 1h 54min
CD info      : 2cd 1400mb
Audio        : english ac3 448kbps
Subs         : english
Rating       : 7.6/10   58,099 votes
IMDB         : http://www.imdb.com/title/tt1649419


Format                           : AVI
Format/Info                      : Audio Video Interleave
File size                        : 697 MiB
Duration                         : 1h 14mn
Overall bit rate                 : 1 313 Kbps
Writing application              : VirtualDubMod 1.5.10.2 (build 2540/release)
Writing library                  : VirtualDubMod build 2540/release

Video
ID                               : 0
Format                           : MPEG-4 Visual
Format profile                   : Advanced Simple@L5
Format settings, BVOP            : 2
Format settings, QPel            : No
Format settings, GMC             : No warppoints
Format settings, Matrix          : Default (H.263)
Codec ID                         : XVID
Codec ID/Hint                    : XviD
Duration                         : 1h 14mn
Bit rate                         : 856 Kbps
Width                            : 640 pixels
Height                           : 272 pixels
Display aspect ratio             : 2.35:1
Frame rate                       : 23.976 fps
Color space                      : YUV
Chroma subsampling               : 4:2:0
Bit depth                        : 8 bits
Scan type                        : Progressive
Compression mode                 : Lossy
Bits/(Pixel*Frame)               : 0.205
Stream size                      : 455 MiB (65%)
Writing library                  : XviD 61

Audio
ID                               : 1
Format                           : AC-3
Format/Info                      : Audio Coding 3
Mode extension                   : CM (complete main)
Codec ID                         : 2000
Duration                         : 1h 14mn
Bit rate mode                    : Constant
Bit rate                         : 448 Kbps
Channel(s)                       : 6 channels
Channel positions                : Front: L C R, Side: L R, LFE
Sampling rate                    : 48.0 KHz
Bit depth                        : 16 bits
Compression mode                 : Lossy
Delay relative to video          : 16ms
Stream size                      : 237 MiB (34%)
Alignment                        : Split accross interleaves
Interleave, duration             : 42 ms (1.00 video frame)
Interleave, preload duration     : 500 ms

Screens: 
http://imgsure.com/?p=436252 
http://imgsure.com/?p=744003 
http://imgsure.com/?p=422938 
http://imgsure.com/?p=298816